<?xml version="1.0" ?><svg viewBox="0 0 30 28.5" xmlns="http://www.w3.org/2000/svg"><title/><g data-name="Layer 2" id="Layer_2"><g id="Interface-Solid"><g id="work-business-solid-performance-2"><path d="M5.89258,15.65674v7.668a1.25,1.25,0,0,0,2.5,0v-7.668a1.25,1.25,0,0,0-2.5,0Z"/><path d="M13.75,11.8042V23.32471a1.25,1.25,0,0,0,2.5,0V11.8042a1.25,1.25,0,0,0-2.5,0Z"/><path d="M22.85742,8.62842a1.24991,1.24991,0,0,0-1.25,1.25V23.32471a1.25,1.25,0,0,0,2.5,0V9.87842A1.24991,1.24991,0,0,0,22.85742,8.62842Z"/><path d="M28.75,26H1.25a1.25,1.25,0,0,0,0,2.5h27.5a1.25,1.25,0,0,0,0-2.5Z"/><path d="M4.66406,10.04541a1.24865,1.24865,0,0,0,1.63965-.66162A5.85726,5.85726,0,0,1,13.6416,6.27a8.189,8.189,0,0,0,2.81152.49463,8.497,8.497,0,0,0,6.13575-2.649V6.15576a1.25,1.25,0,1,0,2.5,0V1.25a1.24991,1.24991,0,0,0-1.25-1.25H18.92871a1.25,1.25,0,0,0,0,2.5h1.77167A5.91492,5.91492,0,0,1,14.499,3.92139,8.387,8.387,0,0,0,4.00293,8.40625,1.24977,1.24977,0,0,0,4.66406,10.04541Z"/></g></g></g></svg>