<?xml version="1.0" ?><!DOCTYPE svg  PUBLIC '-//W3C//DTD SVG 1.1//EN'  'http://www.w3.org/Graphics/SVG/1.1/DTD/svg11.dtd'><svg enable-background="new 0 0 128 128" height="128px" id="Layer_1" version="1.1" viewBox="0 0 128 128" width="128px" xml:space="preserve" xmlns="http://www.w3.org/2000/svg" xmlns:xlink="http://www.w3.org/1999/xlink"><path d="M112.028,66.064c-1.104,0-2-0.895-2-2c0-25.371-20.642-46.013-46.015-46.013C38.642,18.052,18,38.694,18,64.065  c0,1.105-0.896,2-2,2s-2-0.895-2-2c0-27.577,22.437-50.013,50.014-50.013c27.578,0,50.015,22.436,50.015,50.013  C114.028,65.17,113.133,66.064,112.028,66.064z"/><path d="M111.933,67.441c-1.104,0-2-0.895-2-2c0-5.596-4.482-10.15-9.991-10.15c-5.51,0-9.992,4.554-9.992,10.15  c0,1.105-0.896,2-2,2s-2-0.895-2-2v-0.493c0-5.598-4.481-10.151-9.989-10.151c-5.51,0-9.992,4.554-9.992,10.151v0.493  c0,1.105-0.896,2-2,2s-2-0.895-2-2c0-5.596-4.482-10.15-9.993-10.15c-5.509,0-9.99,4.554-9.99,10.15c0,1.105-0.896,2-2,2  s-2-0.895-2-2c0-5.596-4.482-10.15-9.991-10.15c-5.51,0-9.993,4.554-9.993,10.15c0,1.105-0.896,2-2,2s-2-0.895-2-2  c0-7.802,6.277-14.15,13.993-14.15c5.083,0,9.541,2.755,11.991,6.866c2.45-4.111,6.908-6.866,11.99-6.866  c4.983,0,9.366,2.648,11.846,6.625c2.417-4.25,6.953-7.119,12.14-7.119c5.185,0,9.721,2.868,12.137,7.119  c2.479-3.978,6.862-6.625,11.845-6.625c7.715,0,13.991,6.348,13.991,14.15C113.933,66.547,113.037,67.441,111.933,67.441z"/><g><path d="M63.902,107.635c-1.104,0-2-0.896-2-2v-41.57c0-1.104,0.896-2,2-2s2,0.896,2,2v41.57   C65.902,106.738,65.007,107.635,63.902,107.635z"/><path d="M70.462,113.877h-0.316c-4.545,0-8.243-3.697-8.243-8.242c0-1.105,0.896-2,2-2s2,0.895,2,2c0,2.34,1.903,4.242,4.243,4.242   h0.316c2.339,0,4.241-1.902,4.241-4.242c0-1.105,0.896-2,2-2s2,0.895,2,2C78.703,110.18,75.006,113.877,70.462,113.877z"/></g></svg>