<?xml version="1.0" ?><svg viewBox="0 0 28 30" xmlns="http://www.w3.org/2000/svg"><title/><g data-name="Layer 2" id="Layer_2"><g id="Interface-Solid"><g id="work-business-solid-idea"><path d="M14,7a7.00818,7.00818,0,0,0-7,7,1,1,0,0,0,2,0,5.00588,5.00588,0,0,1,5-5,1,1,0,0,0,0-2Z" fill="none"/><path d="M17,25H11a1,1,0,0,0,0,2h6a1,1,0,0,0,0-2Z"/><path d="M17,28H11a1,1,0,0,0,0,2h6a1,1,0,0,0,0-2Z"/><path d="M14,4a.99974.99974,0,0,0,1-1V1a1,1,0,0,0-2,0V3A.99974.99974,0,0,0,14,4Z"/><path d="M3,13H1a1,1,0,0,0,0,2H3a1,1,0,0,0,0-2Z"/><path d="M6.707,6.707a.99962.99962,0,0,0,0-1.41406l-1.5-1.5A.99989.99989,0,0,0,3.793,5.207l1.5,1.5a.99963.99963,0,0,0,1.41406,0Z"/><path d="M27,13H25a1,1,0,0,0,0,2h2a1,1,0,0,0,0-2Z"/><path d="M23.707,3.793a.99962.99962,0,0,0-1.41406,0l-1.5,1.5A.99989.99989,0,1,0,22.207,6.707l1.5-1.5A.99962.99962,0,0,0,23.707,3.793Z"/><path d="M14,5.3335A8.50145,8.50145,0,0,0,9.667,21.14844V23a.99974.99974,0,0,0,1,1h6.666a.99974.99974,0,0,0,1-1V21.14844A8.50145,8.50145,0,0,0,14,5.3335ZM14,9a5.00588,5.00588,0,0,0-5,5,1,1,0,0,1-2,0,7.00818,7.00818,0,0,1,7-7,1,1,0,0,1,0,2Z"/></g></g></g></svg>