<svg width="156" height="156" viewBox="0 0 156 156" fill="none" xmlns="http://www.w3.org/2000/svg">
<g clip-path="url(#clip0)">
<path d="M22.4105 7.87891C11.7455 7.87891 4.77246 14.8821 4.77246 24.0869C4.77246 33.0883 11.5378 40.2913 22.0013 40.2913H22.2037C33.0774 40.2913 39.8444 33.0883 39.8444 24.0869C39.6411 14.8821 33.0774 7.87891 22.4105 7.87891V7.87891Z" fill="#12A6E6"/>
<path d="M6.61548 53.0977H37.7939V146.899H6.61548V53.0977Z" fill="#12A6E6"/>
<path d="M133.745 62.0566C116.925 62.0566 105.647 77.8616 105.647 77.8616V64.2582H74.4675V158.06H105.645V105.677C105.645 102.873 105.848 100.073 106.672 98.0678C108.926 92.4681 114.055 86.6669 122.669 86.6669C133.951 86.6669 138.463 95.2688 138.463 107.879V158.06H169.639V104.276C169.639 75.4638 154.257 62.0566 133.745 62.0566V62.0566Z" fill="#12A6E6"/>
</g>
<defs>
<clipPath id="clip0">
<rect width="155.14" height="155.14" fill="white"/>
</clipPath>
</defs>
</svg>
