<svg id="Livello_1" data-name="Livello 1" xmlns="http://www.w3.org/2000/svg" viewBox="0 0 1349.55 435.95"><defs><style>.cls-1{fill:#00457c;}.cls-2{fill:#fff;}.cls-3{fill:#00a4e4;}</style></defs><title>Senza titolo-1</title><path class="cls-1" d="M1318,653.85c18.67,0,35.89-.32,53.09.17,6.31.18,9.05-1.87,11-7.8,17.73-54.22,35.77-108.34,53.68-162.5,2-6.09,3.78-12.25,6-19.45-16.52,0-31.8.34-47-.15-6.71-.22-11.07,2-15.33,7.09q-51.49,61.21-103.43,122.05c-1.68,2-3.56,3.81-6,6.38-1-3.75-1.86-6.3-2.37-8.92-7.76-39.65-15.57-79.29-23.1-119-1-5.55-3.07-7.8-9-7.61-13.39.45-26.83.67-40.2-.06-7.53-.41-10.36,2.55-12.51,9.23-16.66,52-33.66,103.86-50.52,155.77-2.58,7.94-5,15.93-7.75,24.76,20.34,0,39.46.15,58.58-.25,1.91,0,4.67-3.17,5.46-5.42,5.22-14.94,10-30,15-45.07,2-6.07,4.2-12.08,6.31-18.12,5.18,21.09,8.81,41.91,11.88,62.81.74,5.05,2.74,6.21,7.36,6.15,15.59-.21,31.19.26,46.77-.32a16.76,16.76,0,0,0,10.78-5.27c11.1-12.81,21.56-26.17,32.29-39.3,6.53-8,13.14-15.93,19.72-23.89-2.07,11.86-5.72,22.9-9.32,34S1322,641.34,1318,653.85Zm-471.95,0c20.42,0,39.28-.18,58.13.12,5,.08,5.7-3,6.81-6.39q12-36.54,24-73.08c8.1-24.63,16.39-49.19,24.24-73.9,6.21-19.53-.11-29.92-19.9-33.78a44,44,0,0,0-8.08-1.21c-44.85-.07-89.71-.61-134.54.17-27.12.48-44,13.71-51.84,37.52Q721.72,573.66,698.62,644c-1,2.94-1.61,6-2.63,9.8,20.41,0,39.54.19,58.64-.28,2.06,0,5-3.55,5.87-6,7.13-20.63,14.18-41.3,20.56-62.17,2.08-6.81,4.9-9.55,12.36-9.38,22.69.52,45.4.19,68.09.19h9.92C862.74,602.72,854.56,627.77,846,653.84ZM970,334.86c-.07-.27-.13-.54-.2-.81-2.46,1-5,1.87-7.38,2.95-52.79,23.66-106,46.44-158.27,71.24C739.68,438.81,676.9,472.62,618.3,513.6c-27.38,19.15-53.87,39.5-74.51,66.2a118.35,118.35,0,0,0-14.73,24.45c-10.17,23.15-5,43.23,14.49,59.33,18.08,14.93,39.58,22.95,61.66,29.49,43.13,12.79,87.52,18.55,132.11,23,15.35,1.53,30.77,2.54,46.15,3.78-9.31-3.53-18.85-5.63-28.23-8.3-31.66-9-62.36-20.27-88.8-40.66-14.11-10.89-25.56-24-31-41.33-7.1-22.85-.78-43.72,10.39-63.57,16.23-28.83,39.6-51.46,64.6-72.45,51.73-43.44,109.29-78.11,168.29-110.48C908.9,366.51,939.55,350.89,970,334.86Zm665,130.51h-8.82c-51.14,0-102.29.14-153.43-.17-6.69,0-9.36,2-11.39,8.32-16.12,49.85-32.66,99.56-49,149.32-3.31,10-6.52,20.13-10,31,56.1,0,111.3,0,166.51-.12,1.73,0,4.55-1.45,5-2.86,5-14.35,9.52-28.83,14.61-44.58H1481.72c2.23-7.09,4.4-12.95,5.87-19,1.34-5.54,4.33-7.17,9.91-7.09,20.51.31,41,.25,61.53-.05,2.71,0,7.1-1.56,7.82-3.48,4.64-12.45,8.49-25.2,12.94-38.9H1504.4c1.59-5.14,2.82-9.26,4.15-13.35,4-12.28,4-12.28,17.24-12.28,28.72,0,57.43.11,86.15-.16,2.93,0,7.67-1.62,8.45-3.67C1625.6,494.57,1630,480.52,1635,465.37Zm-471.68-1.1c-10.65,0-19.37-.07-28.09,0-36.91.34-73.83.14-110.71,1.28-26.58.83-42.3,13.79-50.59,38.93q-18.21,55.2-36.35,110.43c-7.91,24-1.75,34.31,23.06,38.37a32.08,32.08,0,0,0,4.9.42c43.48.06,87,.14,130.46,0,2.07,0,5.39-1.81,6-3.53,5-14.08,9.56-28.34,14.54-43.44h-9.66c-29.27,0-58.53.09-87.8-.06-11.89-.06-14.62-3.77-11.14-14.39,6.88-21,13.86-42,20.74-63,4.84-14.74,8-17.13,23.62-17.14,29.27,0,58.54.07,87.8-.14,2.87,0,7.64-1.11,8.3-2.89C1153.64,494.87,1158.1,480.35,1163.32,464.27ZM697.48,417l-.18-.79c-1.47.53-3,1-4.41,1.6-72.11,28.63-143.06,59.87-212,95.57-50,25.91-99.14,53.44-143.07,89.17-17,13.85-33,28.79-44.11,48.09-14.67,25.51-9.83,48.06,14.26,65,22.93,16.12,49.39,23.35,74.25,29.37-4.67-9.47-11.05-19.13-14.29-29.75-5.29-17.39.23-34.07,7.73-49.88,14.57-30.74,37.44-55,62.16-77.59C489,541,546.79,503.56,606.23,468.56,636.34,450.84,667.05,434.13,697.48,417Z" transform="translate(-285.45 -334.05)"/><path class="cls-1" d="M1318,653.85c4-12.51,7.63-23.63,11.25-34.74s7.25-22.1,9.32-34c-6.58,8-13.19,15.9-19.72,23.89-10.73,13.13-21.19,26.49-32.29,39.3a16.76,16.76,0,0,1-10.78,5.27c-15.58.58-31.18.11-46.77.32-4.62.06-6.62-1.1-7.36-6.15-3.07-20.9-6.7-41.72-11.88-62.81-2.11,6-4.3,12-6.31,18.12-5,15-9.73,30.13-15,45.07-.79,2.25-3.55,5.38-5.46,5.42-19.12.4-38.24.25-58.58.25,2.76-8.83,5.17-16.82,7.75-24.76,16.86-51.91,33.86-103.78,50.52-155.77,2.15-6.68,5-9.64,12.51-9.23,13.37.73,26.81.51,40.2.06,6-.19,8,2.06,9,7.61,7.53,39.69,15.34,79.33,23.1,119,.51,2.62,1.36,5.17,2.37,8.92,2.42-2.57,4.3-4.4,6-6.38q51.78-61,103.43-122c4.26-5.06,8.62-7.31,15.33-7.09,15.25.49,30.53.15,47,.15-2.2,7.2-4,13.36-6,19.45-17.91,54.16-36,108.28-53.68,162.5-1.94,5.93-4.68,8-11,7.8C1353.88,653.53,1336.66,653.85,1318,653.85Z" transform="translate(-285.45 -334.05)"/><path class="cls-1" d="M846,653.84c8.52-26.07,16.7-51.12,25.39-77.68h-9.92c-22.69,0-45.4.33-68.09-.19-7.46-.17-10.28,2.57-12.36,9.38-6.38,20.87-13.43,41.54-20.56,62.17-.86,2.48-3.81,6-5.87,6-19.1.47-38.23.28-58.64.28,1-3.82,1.66-6.86,2.63-9.8q23.08-70.38,46.26-140.74c7.83-23.81,24.72-37,51.84-37.52,44.83-.78,89.69-.24,134.54-.17a44,44,0,0,1,8.08,1.21c19.79,3.86,26.11,14.25,19.9,33.78-7.85,24.71-16.14,49.27-24.24,73.9Q923,611,911,647.57c-1.11,3.36-1.79,6.47-6.81,6.39C885.32,653.66,866.46,653.84,846,653.84Zm47.21-144.43c-28.75,0-55.75-.07-82.75.16a7.18,7.18,0,0,0-5.35,3.61c-2.32,5.7-3.89,11.72-5.77,17.69,1.43.64,2.13,1.23,2.83,1.24,26.49.1,53,.22,79.46,0a7.19,7.19,0,0,0,5.31-3.69C889.32,522.72,890.93,516.69,893.25,509.41Z" transform="translate(-285.45 -334.05)"/><path class="cls-1" d="M970,334.86c-30.42,16-61.07,31.65-91.21,48.19-59,32.37-116.56,67-168.29,110.48-25,21-48.37,43.62-64.6,72.45-11.17,19.85-17.49,40.72-10.39,63.57,5.4,17.38,16.85,30.44,31,41.33,26.44,20.39,57.14,31.65,88.8,40.66,9.38,2.67,18.92,4.77,28.23,8.3-15.38-1.24-30.8-2.25-46.15-3.78-44.59-4.44-89-10.2-132.11-23-22.08-6.54-43.58-14.56-61.66-29.49-19.49-16.1-24.66-36.18-14.49-59.33a118.35,118.35,0,0,1,14.73-24.45c20.64-26.7,47.13-47,74.51-66.2,58.6-41,121.38-74.79,185.82-105.36,52.26-24.8,105.48-47.58,158.27-71.24,2.42-1.08,4.92-2,7.38-2.95C969.84,334.32,969.9,334.59,970,334.86Z" transform="translate(-285.45 -334.05)"/><path class="cls-1" d="M1635,465.37c-5,15.15-9.4,29.2-14.61,42.93-.78,2.05-5.52,3.64-8.45,3.67-28.72.27-57.43.16-86.15.16-13.23,0-13.25,0-17.24,12.28-1.33,4.09-2.56,8.21-4.15,13.35h75.39c-4.45,13.7-8.3,26.45-12.94,38.9-.72,1.92-5.11,3.45-7.82,3.48-20.51.3-41,.36-61.53.05-5.58-.08-8.57,1.55-9.91,7.09-1.47,6-3.64,11.9-5.87,19h106.71c-5.09,15.75-9.66,30.23-14.61,44.58-.48,1.41-3.3,2.85-5,2.86-55.21.15-110.41.12-166.51.12,3.51-10.86,6.72-20.94,10-31,16.39-49.76,32.93-99.47,49-149.32,2-6.29,4.7-8.36,11.39-8.32,51.14.31,102.29.17,153.43.17Z" transform="translate(-285.45 -334.05)"/><path class="cls-1" d="M1163.32,464.27c-5.22,16.08-9.68,30.6-14.92,44.84-.66,1.78-5.43,2.87-8.3,2.89-29.26.21-58.53.11-87.8.14-15.6,0-18.78,2.4-23.62,17.14-6.88,21-13.86,42-20.74,63-3.48,10.62-.75,14.33,11.14,14.39,29.27.15,58.53.06,87.8.06h9.66c-5,15.1-9.51,29.36-14.54,43.44-.61,1.72-3.93,3.52-6,3.53-43.49.16-87,.08-130.46,0a32.08,32.08,0,0,1-4.9-.42c-24.81-4.06-31-14.34-23.06-38.37q18.2-55.21,36.35-110.43c8.29-25.14,24-38.1,50.59-38.93,36.88-1.14,73.8-.94,110.71-1.28C1144,464.2,1152.67,464.27,1163.32,464.27Z" transform="translate(-285.45 -334.05)"/><path class="cls-1" d="M697.48,417c-30.43,17.18-61.14,33.89-91.25,51.61C546.79,503.56,489,541,437.85,587.74c-24.72,22.61-47.59,46.85-62.16,77.59-7.5,15.81-13,32.49-7.73,49.88,3.24,10.62,9.62,20.28,14.29,29.75-24.86-6-51.32-13.25-74.25-29.37-24.09-16.94-28.93-39.49-14.26-65,11.1-19.3,27.08-34.24,44.11-48.09,43.93-35.73,93-63.26,143.07-89.17,68.91-35.7,139.86-66.94,212-95.57,1.45-.57,2.94-1.07,4.41-1.6Z" transform="translate(-285.45 -334.05)"/><path class="cls-2" d="M893.25,509.41c-2.32,7.28-3.93,13.31-6.27,19a7.19,7.19,0,0,1-5.31,3.69c-26.48.19-53,.07-79.46,0-.7,0-1.4-.6-2.83-1.24,1.88-6,3.45-12,5.77-17.69a7.18,7.18,0,0,1,5.35-3.61C837.5,509.34,864.5,509.41,893.25,509.41Z" transform="translate(-285.45 -334.05)"/><path class="cls-3" d="M525.78,559.34c-148,134.38,38.76,184.85,330.66,194.08C550,789,231.92,784.85,525.78,559.34Z" transform="translate(-285.45 -334.05)"/></svg>