<svg width="156" height="156" viewBox="0 0 156 156" fill="none" xmlns="http://www.w3.org/2000/svg">
<path d="M155.14 18.3662C149.371 21.4809 143.223 23.5455 136.814 24.5479C143.408 19.7028 148.44 12.089 150.806 2.91186C144.658 7.42285 137.871 10.6092 130.638 12.3873C124.8 4.73774 116.481 0 107.405 0C89.797 0 75.6211 17.5905 75.6211 39.155C75.6211 42.2578 75.8344 45.2412 76.358 48.0815C49.9163 46.4943 26.5192 30.8967 10.8016 7.13644C8.05758 12.996 6.44801 19.7028 6.44801 26.9228C6.44801 40.4796 12.1203 52.497 20.5754 59.4544C15.4655 59.3351 10.4526 57.5092 6.2056 54.6331C6.2056 54.7525 6.2056 54.9076 6.2056 55.0628C6.2056 74.0853 17.2302 89.8857 31.6873 93.5256C29.0984 94.3967 26.2768 94.8144 23.3486 94.8144C21.3124 94.8144 19.2568 94.6712 17.3272 94.1461C21.4481 109.648 33.1418 121.045 47.0462 121.415C36.2252 131.833 22.4856 138.11 7.61156 138.11C5.00327 138.11 2.50163 137.967 0 137.573C14.0887 148.755 30.7856 155.14 48.7915 155.14C107.318 155.14 139.316 95.4708 139.316 43.7495C139.316 42.0191 139.267 40.3483 139.199 38.6895C145.512 33.1761 150.815 26.2903 155.14 18.3662Z" fill="#12A6E6"/>
</svg>
